<?xml version="1.0" standalone="no"?>
<!DOCTYPE svg PUBLIC "-//W3C//DTD SVG 20010904//EN"
 "http://www.w3.org/TR/2001/REC-SVG-20010904/DTD/svg10.dtd">
<svg version="1.0" xmlns="http://www.w3.org/2000/svg"
 width="100.000000pt" height="100.000000pt" viewBox="0 0 100.000000 100.000000"
 preserveAspectRatio="xMidYMid meet">
<metadata>
Created by potrace 1.15, written by Peter Selinger 2001-2017
</metadata>
<g transform="translate(0.000000,100.000000) scale(0.100000,-0.100000)"
fill="#000000" stroke="none">
<path d="M215 824 c-50 -18 -92 -58 -116 -109 -16 -35 -19 -68 -19 -272 l0
-231 31 -26 31 -26 358 0 358 0 31 26 31 26 0 231 c0 204 -3 237 -19 273 -22
49 -78 97 -130 113 -59 17 -505 14 -556 -5z m552 -99 c57 -34 63 -60 63 -279
l0 -196 -165 0 -165 0 0 145 0 145 80 0 80 0 0 -45 0 -45 45 0 45 0 0 90 0 90
-125 0 -125 0 0 28 c-1 15 -7 38 -15 52 -8 14 -14 29 -15 33 0 5 60 7 133 5
109 -2 138 -6 164 -23z m-409 -1 c47 -33 52 -59 52 -274 l0 -200 -120 0 -120
0 0 196 c0 215 6 245 58 276 34 22 101 23 130 2z"/>
</g>
</svg>
