<?xml version="1.0" standalone="no"?>
<!DOCTYPE svg PUBLIC "-//W3C//DTD SVG 20010904//EN"
 "http://www.w3.org/TR/2001/REC-SVG-20010904/DTD/svg10.dtd">
<svg version="1.0" xmlns="http://www.w3.org/2000/svg"
 width="100.000000pt" height="100.000000pt" viewBox="0 0 100.000000 100.000000"
 preserveAspectRatio="xMidYMid meet">
<metadata>
Created by potrace 1.15, written by Peter Selinger 2001-2017
</metadata>
<g transform="translate(0.000000,100.000000) scale(0.100000,-0.100000)"
fill="#000000" stroke="none">
<path d="M390 904 c-139 -51 -217 -159 -228 -318 -3 -53 -12 -91 -24 -111 -10
-16 -18 -43 -18 -60 0 -37 32 -91 59 -100 11 -3 29 -26 41 -50 28 -57 95 -127
151 -157 63 -33 195 -33 258 0 56 31 123 100 149 156 12 25 31 47 42 51 28 9
60 62 60 100 0 17 -8 44 -18 60 -13 20 -21 59 -25 114 -9 142 -76 245 -196
302 -61 30 -187 36 -251 13z m216 -102 c41 -21 79 -58 109 -104 l17 -28 -232
0 -232 0 17 28 c77 120 207 162 321 104z m128 -244 c9 -12 16 -39 16 -60 0
-25 7 -45 20 -58 16 -16 18 -25 10 -40 -6 -11 -19 -20 -30 -20 -14 0 -28 -17
-49 -59 -44 -87 -129 -151 -201 -151 -72 0 -157 64 -201 151 -21 42 -35 59
-49 59 -11 0 -24 9 -30 20 -8 15 -6 24 10 40 13 13 20 33 20 58 0 21 7 48 16
60 15 22 19 22 234 22 215 0 219 0 234 -22z"/>
</g>
</svg>
