<?xml version="1.0" standalone="no"?>
<!DOCTYPE svg PUBLIC "-//W3C//DTD SVG 20010904//EN"
 "http://www.w3.org/TR/2001/REC-SVG-20010904/DTD/svg10.dtd">
<svg version="1.0" xmlns="http://www.w3.org/2000/svg"
 width="100.000000pt" height="100.000000pt" viewBox="0 0 100.000000 100.000000"
 preserveAspectRatio="xMidYMid meet">
<metadata>
Created by potrace 1.15, written by Peter Selinger 2001-2017
</metadata>
<g transform="translate(0.000000,100.000000) scale(0.100000,-0.100000)"
fill="#000000" stroke="none">
<path d="M370 860 c0 -19 -7 -20 -114 -20 -109 0 -116 -1 -145 -26 l-31 -26 0
-288 0 -288 31 -26 31 -26 358 0 358 0 31 26 31 26 0 288 0 288 -31 26 c-29
25 -36 26 -145 26 -107 0 -114 1 -114 20 0 19 -7 20 -130 20 -123 0 -130 -1
-130 -20z m460 -275 l0 -165 -330 0 -330 0 0 165 0 165 330 0 330 0 0 -165z
m0 -295 l0 -40 -330 0 -330 0 0 40 0 40 330 0 330 0 0 -40z"/>
</g>
</svg>
